<svg xmlns="http://www.w3.org/2000/svg" xmlns:xlink="http://www.w3.org/1999/xlink" viewBox="0 0 72 72"><defs><linearGradient id="linear-gradient" x1="-70.11" y1="107.66" x2="-69.21" y2="108.56" gradientTransform="matrix(80, 0, 0, -80, 5609, 8685)" gradientUnits="userSpaceOnUse"><stop offset="0" stop-color="#c85328"/><stop offset="1" stop-color="#f8991d"/></linearGradient></defs><g id="Layer_1" data-name="Layer 1"><g id="Rectangle"><rect width="72" height="72" style="fill:url(#linear-gradient)"/></g></g><g id="Layer_2" data-name="Layer 2"><rect x="22.55" y="33.59" width="27.76" height="6.35" transform="translate(-15.33 36.52) rotate(-45)" style="fill:none;stroke:#fff;stroke-miterlimit:10;stroke-width:2px"/><rect x="49.43" y="23.15" width="9.79" height="6.35" transform="translate(34.52 -30.7) rotate(45)" style="fill:none;stroke:#fff;stroke-miterlimit:10;stroke-width:2px"/><rect x="49.01" y="45.09" width="10.51" height="6.35" transform="translate(-18.24 52.5) rotate(-45)" style="fill:none;stroke:#fff;stroke-miterlimit:10;stroke-width:2px"/><rect x="14.06" y="44.91" width="10.03" height="6.35" transform="translate(39.59 0.6) rotate(45)" style="fill:none;stroke:#fff;stroke-miterlimit:10;stroke-width:2px"/><rect x="12.97" y="23.44" width="9.33" height="6.35" transform="translate(-13.65 20.26) rotate(-45)" style="fill:none;stroke:#fff;stroke-miterlimit:10;stroke-width:2px"/><polyline points="29.34 35.54 23.54 29.59 28.03 25.1 33.83 31.05" style="fill:none;stroke:#fff;stroke-miterlimit:10;stroke-width:2px"/><polyline points="42.53 39.6 48.4 45.47 43.91 49.96 38.04 44.09" style="fill:none;stroke:#fff;stroke-miterlimit:10;stroke-width:2px"/><rect x="6.05" y="34.96" width="11.77" height="6.35" transform="translate(-26.2 50.07) rotate(-90)" style="fill:none;stroke:#fff;stroke-miterlimit:10;stroke-width:2px"/><rect x="55.34" y="33.99" width="11.77" height="6.35" transform="translate(24.06 98.39) rotate(-90)" style="fill:none;stroke:#fff;stroke-miterlimit:10;stroke-width:2px"/></g></svg>